# xmcd
#
# Track frame offsets:
#	225
#	10551
#	20994
#	35334
#	45676
#	51332
#	62715
#	72626
#	81474
#	93408
#	107856
#	119090
#	129056
#	139150
#	147421
#	154785
#	161540
#	174339
#	184186
#	195177
#	204619
#	212834
#	223630
#	227990
#
# Disc length: 3200 seconds
#
# Revision: 3
# Processed by: cddbd v1.5.2PL0 Copyright (c) Steve Scherf et al.
# Submitted via: EasyCDDAExtractor 16.0.8.1
#
DISCID=670c7d18
DTITLE=Бодра смяна - 24 златни приспивни песнички и песнички за мама
DYEAR=1998
DGENRE=Other
TTITLE0=Мама за всичко
TTITLE1=Ирландска приспивна песен
TTITLE2=Нана о, нана о
TTITLE3=Сладък сън
TTITLE4=Добро утро
TTITLE5=Събуди ме, мамо
TTITLE6=Щом часовникът
TTITLE7=Нани нани, детенце
TTITLE8=Приспивна (Брамс)
TTITLE9=Приспивна (Шуберт)
TTITLE10=Люлчина (Моцарт)
TTITLE11=Флорентинска приспивна
TTITLE12=Хайчи бумайчи
TTITLE13=Букет за мама
TTITLE14=Кукла
TTITLE15=Спи детенце
TTITLE16=Птиченце
TTITLE17=Златен сън
TTITLE18=Молитва
TTITLE19=Майка
TTITLE20=Над люлката
TTITLE21=Спи сине мой
TTITLE22=На маминият имен ден
TTITLE23=Лека нощ, деца (Сънчо)
EXTD=YEAR: 1998
EXTT0=
EXTT1=
EXTT2=
EXTT3=
EXTT4=
EXTT5=
EXTT6=
EXTT7=
EXTT8=
EXTT9=
EXTT10=
EXTT11=
EXTT12=
EXTT13=
EXTT14=
EXTT15=
EXTT16=
EXTT17=
EXTT18=
EXTT19=
EXTT20=
EXTT21=
EXTT22=
EXTT23=
PLAYORDER=
